<svg width="20" height="20" viewBox="0 0 20 20" fill="none" xmlns="http://www.w3.org/2000/svg">
<path d="M2.8125 18.125V0.625H17.1875V18.125H19.375V19.375H0.625V18.125H2.8125ZM4.0625 18.125H9.375V15.625H10.625V18.125H15.9375V1.875H4.0625V18.125Z" fill="#CFD2DB"/>
<path d="M13.75 11.875H12.5V13.125H13.75V11.875Z" fill="#CFD2DB"/>
<path d="M10.625 11.875H9.375V13.125H10.625V11.875Z" fill="#CFD2DB"/>
<path d="M7.5 11.875H6.25V13.125H7.5V11.875Z" fill="#CFD2DB"/>
<path d="M13.75 8.125H12.5V9.375H13.75V8.125Z" fill="#CFD2DB"/>
<path d="M10.625 8.125H9.375V9.375H10.625V8.125Z" fill="#CFD2DB"/>
<path d="M7.5 8.125H6.25V9.375H7.5V8.125Z" fill="#CFD2DB"/>
<path d="M13.75 4.375H12.5V5.625H13.75V4.375Z" fill="#CFD2DB"/>
<path d="M10.625 4.375H9.375V5.625H10.625V4.375Z" fill="#CFD2DB"/>
<path d="M7.5 4.375H6.25V5.625H7.5V4.375Z" fill="#CFD2DB"/>
</svg>
