<svg width="20" height="20" viewBox="0 0 20 20" fill="none" xmlns="http://www.w3.org/2000/svg">
<path fill-rule="evenodd" clip-rule="evenodd" d="M13.2125 1.425L17.3125 5.55L17.5 6V18.125L16.875 18.75H3.125L2.5 18.125V1.875L3.125 1.25H12.775L13.2125 1.425V1.425ZM12.5 6.25H16.25L12.5 2.5V6.25ZM3.75 2.5V17.5H16.25V7.5H11.875L11.25 6.875V2.5H3.75ZM6.3275 11.9162L8.59875 9.63125L7.7125 8.75L5 11.4737V12.3575L7.71375 15.075L8.5975 14.1912L6.3275 11.9162V11.9162ZM11 9.6425L11.875 8.75625L14.6113 11.475V12.3612L11.875 15.0775L10.9938 14.1912L13.2825 11.9162L11 9.6425Z" fill="#CFD2DB"/>
</svg>
