<svg width="18" height="18" viewBox="0 0 18 18" fill="none" xmlns="http://www.w3.org/2000/svg">
<path d="M7.51562 0.765747H12.0156V2.26575H7.51562V0.765747Z" fill="#CFD2DB"/>
<path d="M15.0303 5.55748L16.1058 4.48198L15.0453 3.42148L13.9706 4.49623C12.793 3.55259 11.3329 3.0313 9.82396 3.0158C8.31502 3.0003 6.84452 3.49148 5.64781 4.41073L6.71281 5.49073C7.60261 4.85875 8.66642 4.51812 9.75781 4.51573L9.76531 4.51648V9.75148L13.4801 13.47C12.7467 14.2068 11.8112 14.7093 10.7919 14.9139C9.77271 15.1185 8.71569 15.0159 7.75481 14.6192C6.79393 14.2225 5.97243 13.5495 5.39439 12.6855C4.81635 11.8214 4.5078 10.8053 4.50781 9.76573H6.75781L3.75781 6.76573L0.757812 9.76573H3.00781C3.00679 10.8444 3.26427 11.9075 3.75868 12.8661C4.25309 13.8248 4.97004 14.651 5.84946 15.2755C6.72887 15.9 7.74516 16.3047 8.81316 16.4557C9.88117 16.6066 10.9698 16.4995 11.9879 16.1431C13.0059 15.7868 13.9237 15.1916 14.6645 14.4076C15.4052 13.6235 15.9472 12.6733 16.2452 11.6367C16.5431 10.6 16.5883 9.50707 16.3769 8.44936C16.1656 7.39166 15.7038 6.4 15.0303 5.55748V5.55748Z" fill="#CFD2DB"/>
</svg>
